<svg width="24" height="25" viewBox="0 0 24 25" fill="none" xmlns="http://www.w3.org/2000/svg">
<path d="M7.78912 5.9035C8.32952 5.89346 8.86916 5.94887 9.39625 6.0685C9.84003 6.16539 10.2614 6.34569 10.6379 6.59981C10.9856 6.8525 11.2608 7.19223 11.4357 7.58488C11.6367 8.0677 11.7337 8.58749 11.7203 9.11033C11.7431 9.68441 11.5965 10.2525 11.2987 10.7439C10.9854 11.2079 10.5524 11.5785 10.0455 11.8164C10.7334 12.0018 11.3325 12.4266 11.7352 13.0143C12.1217 13.637 12.316 14.3599 12.2937 15.0925C12.3064 15.6766 12.1857 16.2559 11.9406 16.7863C11.714 17.2489 11.3823 17.6521 10.972 17.9635C10.5496 18.2716 10.0742 18.4995 9.5695 18.6359C9.04611 18.7807 8.50542 18.8534 7.96237 18.8521H2V5.9035H7.78912ZM7.44509 11.1407C7.86969 11.1582 8.28766 11.0311 8.63063 10.7802C8.79489 10.6339 8.92266 10.4513 9.00374 10.2469C9.08482 10.0425 9.11696 9.82192 9.09759 9.60286C9.10858 9.34701 9.05764 9.09229 8.94909 8.86035C8.85701 8.67568 8.71383 8.52133 8.53658 8.41566C8.35705 8.29935 8.15535 8.22153 7.94422 8.18714C7.71514 8.14276 7.48203 8.12257 7.24874 8.12691H4.70109V11.1522H7.44509V11.1407ZM7.59359 16.6534C7.85037 16.6569 8.10662 16.6292 8.35673 16.5709C8.58529 16.5204 8.80205 16.4266 8.99529 16.2945C9.1846 16.1625 9.33754 15.9849 9.43997 15.7781C9.55874 15.5144 9.61331 15.2263 9.5992 14.9374C9.62495 14.6741 9.59008 14.4085 9.49727 14.1608C9.40446 13.9131 9.25617 13.69 9.06377 13.5085C8.65596 13.2081 8.1562 13.0593 7.65052 13.0877H4.70109V16.6534H7.59359Z" fill="#455A64"/>
<path d="M16.1407 16.6056C16.3527 16.8021 16.6025 16.9535 16.8748 17.0505C17.1471 17.1475 17.4362 17.1881 17.7247 17.1699C18.1821 17.1815 18.6305 17.0423 19.001 16.7739C19.3024 16.578 19.5307 16.2879 19.6503 15.9489H21.8044C21.5749 16.914 21.0144 17.7682 20.2204 18.3629C19.4587 18.8685 18.5585 19.1245 17.6447 19.0955C16.9925 19.1041 16.3453 18.9815 15.7414 18.735C15.1951 18.5072 14.7052 18.1628 14.3059 17.726C13.908 17.2683 13.6024 16.738 13.4058 16.1642C13.1851 15.523 13.0771 14.8483 13.0865 14.1702C13.0825 13.5034 13.1941 12.841 13.4165 12.2124C13.7153 11.3281 14.2865 10.5612 15.0482 10.0216C15.8099 9.48212 16.7229 9.19777 17.6563 9.20938C18.3453 9.19498 19.0268 9.35625 19.6363 9.67799C20.1873 9.98011 20.6626 10.4032 21.0264 10.9155C21.3987 11.4531 21.6655 12.0564 21.8127 12.6934C21.9741 13.3775 22.0317 14.082 21.9835 14.7832H15.5673C15.5153 15.442 15.7209 16.0953 16.1407 16.6056ZM18.9557 11.6811C18.7761 11.5015 18.5602 11.3625 18.3224 11.2734C18.0845 11.1843 17.8304 11.1472 17.5771 11.1647C17.2409 11.1518 16.9073 11.2263 16.6085 11.3808C16.3716 11.5112 16.1626 11.6867 15.993 11.8973C15.8428 12.0948 15.7309 12.3186 15.663 12.5573C15.6019 12.7563 15.5637 12.9617 15.5492 13.1694H19.5233C19.4886 12.628 19.2914 12.1095 18.9573 11.6819L18.9557 11.6811Z" fill="#455A64"/>
<path d="M20.0166 6.76807H15.0369V8.04106H20.0166V6.76807Z" fill="#455A64"/>
</svg>
