<svg width="24" height="25" viewBox="0 0 24 25" fill="none" xmlns="http://www.w3.org/2000/svg">
<path fill-rule="evenodd" clip-rule="evenodd" d="M12 2.5C6.4794 2.5 2 6.9794 2 12.5C2 18.0206 6.4794 22.5 12 22.5C17.5098 22.5 22 18.0206 22 12.5C22 6.9794 17.5098 2.5 12 2.5ZM18.6052 7.10954C19.7983 8.5629 20.5141 10.4176 20.5358 12.4241C20.2538 12.3698 17.4338 11.795 14.5922 12.1529C14.5271 12.0119 14.4729 11.8601 14.4078 11.7082C14.2343 11.2961 14.039 10.8731 13.8438 10.4718C16.9892 9.19198 18.4208 7.34816 18.6052 7.10954ZM12 3.97505C14.1692 3.97505 16.154 4.7885 17.6616 6.12256C17.5098 6.33948 16.2191 8.064 13.1822 9.20282C11.7831 6.63232 10.2321 4.5282 9.9935 4.20282C10.6334 4.05098 11.3059 3.97505 12 3.97505ZM8.3666 4.77766C8.59436 5.08134 10.1128 7.19632 11.5336 9.71258C7.5423 10.7755 4.01736 10.7538 3.63774 10.7538C4.19088 8.10738 5.98048 5.90564 8.3666 4.77766ZM3.45336 12.5108C3.45336 12.4241 3.45336 12.3373 3.45336 12.2505C3.82213 12.2614 7.9653 12.3156 12.2278 11.0358C12.4772 11.513 12.705 12.0011 12.9219 12.4892C12.8134 12.5217 12.6941 12.5542 12.5857 12.5868C8.18222 14.0076 5.83948 17.8905 5.64426 18.2158C4.2885 16.7082 3.45336 14.7017 3.45336 12.5108ZM12 21.0466C10.026 21.0466 8.2039 20.3742 6.76138 19.2462C6.91324 18.9317 8.6486 15.5911 13.4642 13.91C13.4859 13.8991 13.4967 13.8991 13.5184 13.8883C14.7223 17.0011 15.2104 19.615 15.3406 20.3633C14.3102 20.808 13.1822 21.0466 12 21.0466ZM16.7614 19.5824C16.6746 19.0618 16.2191 16.5672 15.102 13.4978C17.7809 13.0748 20.1236 13.769 20.4165 13.8666C20.0477 16.2419 18.6811 18.2918 16.7614 19.5824Z" fill="#455A64"/>
</svg>
