<?xml version="1.0" standalone="no"?>
<!DOCTYPE svg PUBLIC "-//W3C//DTD SVG 20010904//EN"
 "http://www.w3.org/TR/2001/REC-SVG-20010904/DTD/svg10.dtd">
<svg version="1.0" xmlns="http://www.w3.org/2000/svg"
 width="960.000000pt" height="960.000000pt" viewBox="0 0 960.000000 960.000000"
 preserveAspectRatio="xMidYMid meet">
<metadata>
Created by potrace 1.14, written by Peter Selinger 2001-2017
</metadata>
<g transform="translate(0.000000,960.000000) scale(0.100000,-0.100000)"
fill="#000000" stroke="none">
<path d="M4789 9248 c0 -7 -2 -20 -4 -28 -2 -8 -6 -26 -9 -40 -10 -42 -14 -62
-36 -150 -12 -47 -24 -96 -26 -110 -3 -14 -7 -33 -10 -42 -3 -9 -6 -25 -8 -35
-2 -10 -18 -76 -36 -148 -17 -71 -33 -137 -35 -145 -2 -8 -15 -62 -29 -120
-15 -58 -29 -118 -32 -135 -3 -16 -10 -48 -16 -70 -5 -22 -11 -47 -13 -55 -2
-8 -8 -35 -14 -60 -7 -25 -13 -52 -15 -60 -2 -8 -10 -35 -17 -60 -7 -25 -14
-54 -16 -65 -4 -22 -13 -52 -73 -230 -22 -66 -42 -127 -44 -135 -3 -8 -5 -15
-6 -15 -1 0 -3 -7 -5 -15 -2 -8 -12 -35 -23 -60 -21 -50 -35 -82 -36 -90 -1
-3 -14 -31 -29 -64 -15 -32 -27 -61 -27 -64 0 -11 -172 -348 -186 -363 -8 -8
-14 -19 -14 -23 0 -8 -78 -143 -93 -161 -14 -17 -77 -117 -77 -121 0 -3 -5
-10 -10 -17 -6 -7 -43 -57 -82 -112 -65 -92 -175 -234 -223 -289 -11 -12 -47
-54 -80 -91 -117 -135 -433 -441 -483 -469 -10 -5 -21 -15 -27 -22 -29 -35
-357 -276 -469 -344 -32 -19 -73 -45 -92 -57 -19 -12 -60 -37 -92 -54 -31 -18
-66 -38 -78 -46 -11 -7 -24 -10 -27 -6 -4 3 -7 2 -7 -4 0 -6 -15 -16 -32 -24
-18 -7 -35 -15 -38 -19 -8 -9 -146 -75 -300 -141 -25 -11 -54 -24 -65 -29 -11
-5 -48 -19 -82 -32 -59 -21 -80 -38 -50 -38 7 0 33 -10 57 -21 24 -12 49 -22
54 -24 56 -12 394 -173 519 -247 26 -15 52 -28 57 -28 4 0 10 -3 12 -7 2 -5
23 -19 48 -32 56 -30 361 -231 380 -251 3 -3 40 -32 83 -64 42 -32 77 -63 77
-68 0 -5 4 -7 9 -4 5 4 11 3 13 -1 1 -5 32 -33 68 -63 36 -30 80 -68 99 -85
58 -50 292 -286 365 -368 130 -145 366 -452 366 -475 0 -6 4 -12 8 -14 12 -4
72 -95 72 -107 0 -6 4 -11 8 -11 5 0 16 -15 25 -32 17 -33 27 -49 58 -98 9
-14 36 -61 59 -105 94 -176 130 -248 130 -260 0 -7 7 -18 15 -25 9 -7 13 -15
11 -17 -2 -3 6 -26 19 -52 31 -61 131 -310 147 -364 6 -23 12 -44 13 -47 1 -3
7 -18 14 -35 20 -48 135 -474 146 -540 2 -11 8 -38 14 -60 11 -40 69 -286 97
-405 13 -55 22 -94 29 -120 0 -3 9 -41 19 -85 9 -44 19 -87 22 -95 3 -8 6 -17
6 -20 1 -3 5 -21 10 -40 10 -40 13 -54 29 -127 11 -48 28 -71 30 -40 0 6 2 19
4 27 2 8 6 26 9 40 3 14 8 34 11 45 16 71 57 243 61 255 2 8 10 44 19 80 18
76 22 96 29 118 3 9 7 28 10 42 8 38 13 61 24 105 6 22 13 51 16 65 8 38 13
60 29 125 9 33 18 71 21 85 3 14 17 72 31 130 15 58 28 112 30 120 7 34 35
131 64 225 18 55 33 107 36 115 2 8 4 16 5 18 2 1 3 5 5 10 1 4 6 18 12 32 30
75 57 156 55 163 -1 4 2 7 8 7 5 0 10 7 10 16 0 8 12 41 26 72 14 31 33 73 41
92 29 67 175 355 187 370 7 8 16 23 19 32 3 9 38 68 77 130 39 62 77 122 83
133 7 11 15 22 18 25 3 3 19 25 35 49 16 24 36 54 44 67 18 27 132 177 139
184 4 3 22 25 42 50 159 197 424 466 599 609 14 11 31 26 38 32 111 94 374
284 488 353 43 26 107 65 142 86 34 21 62 36 62 33 0 -3 8 1 17 9 10 8 56 34
103 58 47 23 89 47 94 51 6 5 18 9 28 9 10 0 18 5 18 10 0 6 4 10 9 10 5 0 26
8 47 17 22 9 42 16 47 15 4 -1 7 3 7 9 0 5 4 8 9 5 5 -3 14 1 21 9 7 8 18 15
25 15 7 0 30 8 51 17 22 9 41 17 44 18 3 1 23 9 44 18 22 10 50 20 63 23 13 4
23 9 23 13 0 3 -51 26 -113 50 -62 24 -149 61 -193 83 -45 21 -87 38 -93 38
-6 0 -11 5 -11 10 0 6 -8 10 -18 10 -10 0 -22 4 -28 9 -5 4 -49 30 -99 56
-132 70 -250 138 -253 147 -2 4 -8 8 -14 8 -28 0 -347 227 -512 363 -232 192
-484 445 -640 642 -22 28 -46 57 -53 65 -31 34 -153 201 -153 209 0 5 -4 11
-9 13 -16 6 -148 216 -265 420 -40 69 -126 243 -126 254 0 6 -7 17 -15 24 -9
7 -14 15 -11 17 2 3 -8 30 -24 61 -54 111 -173 428 -206 552 -33 125 -105 401
-108 420 -3 14 -10 45 -17 70 -6 25 -13 54 -15 65 -2 11 -8 38 -14 60 -13 49
-18 70 -27 115 -9 43 -8 42 -16 60 -4 8 -9 26 -11 40 -12 63 -27 128 -47 200
-5 19 -11 46 -13 60 -12 65 -20 96 -29 108 -5 6 -7 12 -4 12 3 0 1 17 -4 38
-11 42 -14 57 -30 130 -11 47 -28 70 -30 40z"/>
</g>
</svg>
